<svg xmlns="http://www.w3.org/2000/svg" xmlns:xlink="http://www.w3.org/1999/xlink" width="500" zoomAndPan="magnify" viewBox="0 0 375 374.999991" height="500" preserveAspectRatio="xMidYMid meet" version="1.0"><defs><g/><clipPath id="4bd8ee86e9"><path d="M 118.222656 132.503906 L 262.445312 132.503906 L 262.445312 223.535156 L 118.222656 223.535156 Z M 118.222656 132.503906 " clip-rule="nonzero"/></clipPath><clipPath id="baade840f9"><path d="M 113.261719 172.199219 L 256.996094 172.199219 L 256.996094 230.957031 L 113.261719 230.957031 Z M 113.261719 172.199219 " clip-rule="nonzero"/></clipPath><clipPath id="f9edf8d351"><path d="M 112.5 163 L 253 163 L 253 190 L 112.5 190 Z M 112.5 163 " clip-rule="nonzero"/></clipPath></defs><rect x="-37.5" width="450" fill="#ffffff" y="-37.499999" height="449.999989" fill-opacity="1"/><rect x="-37.5" width="450" fill="#131515" y="-37.499999" height="449.999989" fill-opacity="1"/><g clip-path="url(#4bd8ee86e9)"><path fill="#f7f4f3" d="M 118.378906 185.78125 L 132.28125 219.722656 C 133.554688 222.832031 137.109375 224.320312 140.21875 223.046875 L 258.664062 174.542969 C 261.777344 173.269531 263.265625 169.714844 261.992188 166.601562 L 248.089844 132.660156 L 118.378906 185.78125 " fill-opacity="1" fill-rule="nonzero"/></g><path fill="#dd1c1a" d="M 246.769531 129.4375 C 245.496094 126.328125 241.941406 124.839844 238.832031 126.113281 L 120.386719 174.617188 C 117.277344 175.890625 115.785156 179.445312 117.0625 182.558594 L 118.378906 185.78125 L 248.089844 132.660156 L 246.769531 129.4375 " fill-opacity="1" fill-rule="nonzero"/><path fill="#131515" d="M 133.019531 188.386719 L 125.550781 191.449219 L 124.796875 189.613281 L 132.269531 186.554688 L 133.019531 188.386719 " fill-opacity="1" fill-rule="nonzero"/><path fill="#131515" d="M 135.144531 193.570312 L 127.671875 196.632812 L 126.460938 193.671875 L 133.933594 190.613281 L 135.144531 193.570312 " fill-opacity="1" fill-rule="nonzero"/><path fill="#131515" d="M 136.34375 196.503906 L 128.871094 199.566406 L 128.496094 198.648438 L 135.96875 195.589844 L 136.34375 196.503906 " fill-opacity="1" fill-rule="nonzero"/><path fill="#131515" d="M 138.007812 200.566406 L 130.535156 203.625 L 129.136719 200.210938 L 136.609375 197.152344 L 138.007812 200.566406 " fill-opacity="1" fill-rule="nonzero"/><path fill="#131515" d="M 139.667969 204.625 L 132.199219 207.683594 L 131.449219 205.851562 L 138.917969 202.792969 L 139.667969 204.625 " fill-opacity="1" fill-rule="nonzero"/><path fill="#131515" d="M 141.332031 208.683594 L 133.859375 211.742188 L 132.386719 208.144531 L 139.859375 205.085938 L 141.332031 208.683594 " fill-opacity="1" fill-rule="nonzero"/><path fill="#131515" d="M 142.992188 212.742188 L 135.523438 215.800781 L 134.773438 213.96875 L 142.242188 210.910156 L 142.992188 212.742188 " fill-opacity="1" fill-rule="nonzero"/><path fill="#477eff" d="M 159.25 191.894531 L 145.21875 197.640625 L 139.46875 183.605469 L 153.503906 177.859375 L 159.25 191.894531 " fill-opacity="1" fill-rule="nonzero"/><path fill="#477eff" d="M 178.441406 184.035156 L 164.40625 189.78125 L 158.660156 175.75 L 172.691406 170 L 178.441406 184.035156 " fill-opacity="1" fill-rule="nonzero"/><path fill="#477eff" d="M 197.628906 176.175781 L 183.59375 181.925781 L 177.847656 167.890625 L 191.882812 162.144531 L 197.628906 176.175781 " fill-opacity="1" fill-rule="nonzero"/><path fill="#131515" d="M 240.199219 171.75 C 240.710938 171.578125 241.054688 171.089844 241.039062 170.550781 L 240.632812 155.007812 C 240.601562 153.929688 241.023438 152.886719 241.796875 152.128906 L 245.492188 148.511719 C 246.265625 147.753906 246.6875 146.710938 246.667969 145.628906 C 246.660156 145.253906 246.363281 144.953125 245.988281 144.9375 C 244.90625 144.890625 243.855469 145.296875 243.082031 146.050781 L 239.386719 149.671875 C 238.617188 150.425781 237.566406 150.828125 236.488281 150.777344 L 220.957031 150.046875 C 220.414062 150.023438 219.921875 150.355469 219.738281 150.863281 C 219.511719 151.507812 219.84375 152.210938 220.484375 152.441406 L 231.476562 156.355469 C 231.921875 156.511719 232.046875 157.082031 231.710938 157.410156 L 225.96875 163.035156 C 225.449219 163.546875 224.714844 163.765625 224 163.628906 L 222.085938 163.265625 L 221.703125 164.585938 L 224.292969 165.445312 C 224.972656 165.671875 225.503906 166.210938 225.714844 166.894531 L 226.519531 169.503906 L 227.851562 169.148438 L 227.585938 167.605469 C 227.425781 166.652344 227.738281 165.679688 228.429688 165.003906 L 233.898438 159.648438 C 234.238281 159.316406 234.800781 159.453125 234.953125 159.902344 L 238.636719 170.972656 C 238.855469 171.617188 239.550781 171.964844 240.199219 171.75 " fill-opacity="1" fill-rule="nonzero"/><path fill="#131515" d="M 204.75 145.007812 C 204.390625 145.15625 203.984375 144.984375 203.839844 144.628906 L 202.933594 142.414062 C 202.785156 142.058594 202.957031 141.648438 203.3125 141.503906 C 203.667969 141.359375 204.078125 141.527344 204.222656 141.886719 L 205.128906 144.097656 C 205.277344 144.457031 205.105469 144.863281 204.75 145.007812 Z M 207.695312 152.207031 C 207.339844 152.351562 206.929688 152.179688 206.785156 151.824219 L 205.878906 149.609375 C 205.734375 149.253906 205.902344 148.84375 206.261719 148.699219 C 206.617188 148.554688 207.023438 148.722656 207.171875 149.082031 L 208.078125 151.296875 C 208.222656 151.652344 208.050781 152.058594 207.695312 152.207031 Z M 210.640625 159.402344 C 210.285156 159.546875 209.878906 159.375 209.730469 159.019531 L 208.824219 156.804688 C 208.679688 156.449219 208.851562 156.042969 209.207031 155.894531 C 209.5625 155.75 209.972656 155.917969 210.117188 156.277344 L 211.023438 158.492188 C 211.167969 158.847656 211 159.253906 210.640625 159.402344 Z M 213.589844 166.597656 C 213.230469 166.742188 212.824219 166.570312 212.679688 166.214844 L 211.773438 164 C 211.625 163.644531 211.796875 163.238281 212.152344 163.089844 C 212.511719 162.945312 212.917969 163.113281 213.0625 163.472656 L 213.96875 165.6875 C 214.117188 166.042969 213.945312 166.449219 213.589844 166.597656 Z M 216.535156 173.792969 C 216.179688 173.9375 215.773438 173.765625 215.625 173.410156 L 214.71875 171.195312 C 214.574219 170.839844 214.742188 170.433594 215.101562 170.285156 C 215.457031 170.140625 215.863281 170.3125 216.011719 170.667969 L 216.917969 172.882812 C 217.0625 173.238281 216.890625 173.644531 216.535156 173.792969 Z M 219.484375 180.988281 C 219.125 181.132812 218.71875 180.960938 218.570312 180.605469 L 217.664062 178.390625 C 217.519531 178.035156 217.691406 177.628906 218.046875 177.480469 C 218.402344 177.335938 218.8125 177.507812 218.957031 177.863281 L 219.863281 180.078125 C 220.011719 180.433594 219.839844 180.839844 219.484375 180.988281 Z M 222.429688 188.183594 C 222.074219 188.328125 221.664062 188.15625 221.519531 187.800781 L 220.613281 185.585938 C 220.464844 185.230469 220.636719 184.824219 220.992188 184.675781 C 221.351562 184.53125 221.757812 184.703125 221.902344 185.058594 L 222.8125 187.273438 C 222.957031 187.628906 222.785156 188.035156 222.429688 188.183594 " fill-opacity="1" fill-rule="nonzero"/><path fill="#477eff" d="M 191.679688 191.308594 L 149.671875 208.511719 L 146.582031 200.96875 L 188.589844 183.765625 L 191.679688 191.308594 " fill-opacity="1" fill-rule="nonzero"/><g clip-path="url(#baade840f9)"><path fill="#f7f4f3" d="M 113.382812 189.191406 L 117.789062 225.601562 C 118.191406 228.9375 121.226562 231.316406 124.5625 230.914062 L 251.628906 215.539062 C 254.964844 215.136719 257.34375 212.101562 256.9375 208.765625 L 252.535156 172.355469 L 113.382812 189.191406 " fill-opacity="1" fill-rule="nonzero"/></g><g clip-path="url(#f9edf8d351)"><path fill="#dd1c1a" d="M 252.113281 168.898438 C 251.710938 165.558594 248.679688 163.179688 245.339844 163.585938 L 118.277344 178.960938 C 114.9375 179.363281 112.5625 182.394531 112.964844 185.734375 L 113.382812 189.191406 L 252.535156 172.355469 L 252.113281 168.898438 " fill-opacity="1" fill-rule="nonzero"/></g><path fill="#131515" d="M 126.808594 195.585938 L 118.792969 196.554688 L 118.554688 194.589844 L 126.570312 193.621094 L 126.808594 195.585938 " fill-opacity="1" fill-rule="nonzero"/><path fill="#131515" d="M 127.480469 201.148438 L 119.464844 202.117188 L 119.082031 198.945312 L 127.097656 197.972656 L 127.480469 201.148438 " fill-opacity="1" fill-rule="nonzero"/><path fill="#131515" d="M 127.863281 204.292969 L 119.847656 205.261719 L 119.726562 204.28125 L 127.742188 203.3125 L 127.863281 204.292969 " fill-opacity="1" fill-rule="nonzero"/><path fill="#131515" d="M 128.390625 208.648438 L 120.371094 209.617188 L 119.929688 205.957031 L 127.945312 204.988281 L 128.390625 208.648438 " fill-opacity="1" fill-rule="nonzero"/><path fill="#131515" d="M 128.914062 213.003906 L 120.898438 213.972656 L 120.664062 212.007812 L 128.679688 211.039062 L 128.914062 213.003906 " fill-opacity="1" fill-rule="nonzero"/><path fill="#131515" d="M 129.441406 217.355469 L 121.425781 218.328125 L 120.960938 214.46875 L 128.976562 213.496094 L 129.441406 217.355469 " fill-opacity="1" fill-rule="nonzero"/><path fill="#131515" d="M 129.96875 221.710938 L 121.953125 222.683594 L 121.714844 220.714844 L 129.730469 219.746094 L 129.96875 221.710938 " fill-opacity="1" fill-rule="nonzero"/><path fill="#477eff" d="M 151.171875 205.917969 L 136.117188 207.738281 L 134.296875 192.683594 L 149.351562 190.863281 L 151.171875 205.917969 " fill-opacity="1" fill-rule="nonzero"/><path fill="#477eff" d="M 171.757812 203.429688 L 156.699219 205.25 L 154.878906 190.195312 L 169.933594 188.371094 L 171.757812 203.429688 " fill-opacity="1" fill-rule="nonzero"/><path fill="#477eff" d="M 192.339844 200.9375 L 177.285156 202.757812 L 175.464844 187.703125 L 190.519531 185.882812 L 192.339844 200.9375 " fill-opacity="1" fill-rule="nonzero"/><path fill="#131515" d="M 234.5625 207.953125 C 235.101562 207.921875 235.5625 207.542969 235.691406 207.015625 L 239.417969 191.925781 C 239.675781 190.875 240.359375 189.980469 241.304688 189.457031 L 245.824219 186.949219 C 246.769531 186.421875 247.457031 185.53125 247.722656 184.480469 C 247.8125 184.117188 247.609375 183.746094 247.25 183.632812 C 246.222656 183.300781 245.101562 183.414062 244.15625 183.9375 L 239.632812 186.449219 C 238.6875 186.972656 237.570312 187.082031 236.542969 186.746094 L 221.761719 181.925781 C 221.246094 181.757812 220.683594 181.945312 220.371094 182.390625 C 219.980469 182.949219 220.117188 183.71875 220.671875 184.109375 L 230.234375 190.796875 C 230.621094 191.066406 230.589844 191.648438 230.179688 191.878906 L 223.148438 195.777344 C 222.515625 196.132812 221.746094 196.148438 221.09375 195.828125 L 219.34375 194.96875 L 218.625 196.144531 L 220.898438 197.660156 C 221.492188 198.054688 221.859375 198.714844 221.882812 199.433594 L 221.96875 202.160156 L 223.34375 202.171875 L 223.5 200.613281 C 223.597656 199.652344 224.160156 198.796875 225.003906 198.328125 L 231.695312 194.613281 C 232.109375 194.382812 232.617188 194.664062 232.644531 195.136719 L 233.265625 206.789062 C 233.300781 207.46875 233.882812 207.988281 234.5625 207.953125 " fill-opacity="1" fill-rule="nonzero"/><path fill="#131515" d="M 207.46875 172.773438 C 207.085938 172.816406 206.738281 172.546875 206.691406 172.164062 L 206.40625 169.789062 C 206.359375 169.40625 206.632812 169.058594 207.011719 169.011719 C 207.394531 168.964844 207.742188 169.238281 207.789062 169.621094 L 208.078125 171.996094 C 208.125 172.378906 207.851562 172.726562 207.46875 172.773438 Z M 208.402344 180.492188 C 208.019531 180.539062 207.671875 180.265625 207.625 179.882812 L 207.339844 177.507812 C 207.292969 177.125 207.566406 176.777344 207.949219 176.730469 C 208.328125 176.683594 208.675781 176.957031 208.722656 177.339844 L 209.011719 179.714844 C 209.058594 180.097656 208.785156 180.445312 208.402344 180.492188 Z M 209.335938 188.210938 C 208.953125 188.257812 208.605469 187.984375 208.558594 187.601562 L 208.273438 185.226562 C 208.226562 184.84375 208.5 184.496094 208.882812 184.449219 C 209.265625 184.402344 209.613281 184.675781 209.65625 185.058594 L 209.945312 187.433594 C 209.992188 187.816406 209.71875 188.164062 209.335938 188.210938 Z M 210.269531 195.929688 C 209.886719 195.976562 209.539062 195.703125 209.492188 195.320312 L 209.207031 192.945312 C 209.160156 192.5625 209.433594 192.214844 209.816406 192.167969 C 210.199219 192.121094 210.546875 192.394531 210.59375 192.777344 L 210.878906 195.152344 C 210.925781 195.535156 210.652344 195.882812 210.269531 195.929688 Z M 211.203125 203.648438 C 210.820312 203.695312 210.472656 203.421875 210.429688 203.039062 L 210.140625 200.664062 C 210.09375 200.28125 210.367188 199.933594 210.75 199.886719 C 211.132812 199.84375 211.480469 200.113281 211.527344 200.496094 L 211.8125 202.871094 C 211.859375 203.253906 211.585938 203.601562 211.203125 203.648438 Z M 212.140625 211.367188 C 211.753906 211.414062 211.40625 211.140625 211.363281 210.757812 L 211.074219 208.382812 C 211.027344 208 211.300781 207.652344 211.683594 207.609375 C 212.066406 207.5625 212.414062 207.832031 212.460938 208.214844 L 212.746094 210.589844 C 212.792969 210.972656 212.519531 211.320312 212.140625 211.367188 Z M 213.074219 219.085938 C 212.691406 219.132812 212.34375 218.859375 212.296875 218.480469 L 212.007812 216.101562 C 211.960938 215.722656 212.234375 215.375 212.617188 215.328125 C 213 215.28125 213.347656 215.554688 213.394531 215.933594 L 213.679688 218.3125 C 213.726562 218.691406 213.453125 219.039062 213.074219 219.085938 " fill-opacity="1" fill-rule="nonzero"/><path fill="#477eff" d="M 182.59375 213.953125 L 137.527344 219.40625 L 136.546875 211.308594 L 181.617188 205.855469 L 182.59375 213.953125 " fill-opacity="1" fill-rule="nonzero"/><g fill="#ffffff" fill-opacity="1"><g transform="translate(99.749998, 258.222523)"><g><path d="M 5.28125 -17.9375 L 1.765625 -17.9375 C 1.484375 -17.9375 1.265625 -17.71875 1.28125 -17.4375 C 1.3125 -16.328125 1.390625 -13.453125 1.390625 -8.984375 C 1.390625 -4.515625 1.3125 -1.625 1.28125 -0.515625 C 1.265625 -0.234375 1.484375 0.03125 1.765625 0.03125 L 4.78125 0.03125 C 5.0625 0.03125 5.28125 -0.234375 5.265625 -0.515625 C 5.234375 -1.46875 5.1875 -3.703125 5.15625 -7.109375 C 5.15625 -7.390625 5.390625 -7.625 5.671875 -7.625 L 11.0625 -7.625 C 11.34375 -7.625 11.578125 -7.828125 11.578125 -8.109375 L 11.578125 -9.828125 C 11.578125 -10.109375 11.34375 -10.3125 11.0625 -10.3125 L 5.671875 -10.3125 C 5.390625 -10.3125 5.15625 -10.546875 5.15625 -10.828125 C 5.15625 -12.40625 5.1875 -13.6875 5.21875 -14.734375 C 5.21875 -15.015625 5.4375 -15.25 5.703125 -15.25 L 12.421875 -15.25 C 12.703125 -15.25 12.9375 -15.453125 12.9375 -15.734375 L 12.9375 -17.453125 C 12.9375 -17.734375 12.703125 -17.9375 12.421875 -17.9375 Z M 5.28125 -17.9375 "/></g></g></g><g fill="#ffffff" fill-opacity="1"><g transform="translate(113.993566, 258.222523)"><g><path d="M 5.078125 -3.203125 C 5.140625 -9.0625 5.265625 -15.578125 5.3125 -17.4375 C 5.3125 -17.71875 5.078125 -17.9375 4.796875 -17.9375 L 1.765625 -17.9375 C 1.484375 -17.9375 1.28125 -17.734375 1.28125 -17.453125 L 1.28125 -0.484375 C 1.28125 -0.203125 1.484375 0 1.765625 0 L 10.609375 0 C 10.890625 0 11.09375 -0.203125 11.09375 -0.484375 L 11.09375 -2.203125 C 11.09375 -2.484375 10.890625 -2.703125 10.609375 -2.703125 L 5.59375 -2.703125 C 5.3125 -2.703125 5.078125 -2.921875 5.078125 -3.203125 Z M 5.078125 -3.203125 "/></g></g></g><g fill="#ffffff" fill-opacity="1"><g transform="translate(126.261002, 258.222523)"><g><path d="M 5.265625 -0.515625 C 5.234375 -1.625 5.15625 -4.515625 5.15625 -8.984375 C 5.15625 -13.453125 5.234375 -16.328125 5.265625 -17.4375 C 5.28125 -17.71875 5.0625 -17.96875 4.78125 -17.96875 L 1.765625 -17.96875 C 1.484375 -17.96875 1.265625 -17.71875 1.28125 -17.4375 C 1.3125 -16.328125 1.390625 -13.453125 1.390625 -8.984375 C 1.390625 -4.515625 1.3125 -1.625 1.28125 -0.515625 C 1.265625 -0.234375 1.484375 0 1.765625 0 L 4.78125 0 C 5.0625 0 5.28125 -0.234375 5.265625 -0.515625 Z M 5.265625 -0.515625 "/></g></g></g><g fill="#ffffff" fill-opacity="1"><g transform="translate(132.831009, 258.222523)"><g><path d="M 7.546875 -8.984375 L 7.546875 -7.265625 C 7.546875 -6.984375 7.78125 -6.75 8.0625 -6.75 L 9.390625 -6.75 C 9.671875 -6.75 9.90625 -6.546875 9.90625 -6.265625 C 9.90625 -5.984375 9.9375 -5.703125 9.9375 -5.390625 C 9.9375 -4.109375 9.53125 -2.484375 7.46875 -2.484375 C 5.34375 -2.484375 5.3125 -4.78125 5.3125 -5.390625 L 5.3125 -12.546875 C 5.3125 -13.84375 5.546875 -15.453125 7.578125 -15.453125 C 9.3125 -15.453125 9.65625 -13.921875 9.734375 -13.015625 C 9.75 -12.765625 9.953125 -12.546875 10.21875 -12.546875 L 13.25 -12.546875 C 13.5625 -12.546875 13.78125 -12.8125 13.765625 -13.09375 C 13.578125 -15.71875 11.9375 -18.171875 7.515625 -18.171875 C 2.90625 -18.171875 1.28125 -15.8125 1.28125 -12.546875 C 1.28125 -11.453125 1.390625 -10.734375 1.390625 -8.953125 C 1.390625 -7.21875 1.28125 -6.5 1.28125 -5.390625 C 1.28125 -2.5625 2.828125 0.234375 7.515625 0.234375 C 12.171875 0.234375 13.78125 -2.125 13.78125 -5.390625 L 13.78125 -8.984375 C 13.78125 -9.234375 13.5625 -9.46875 13.265625 -9.46875 L 8.0625 -9.46875 C 7.78125 -9.46875 7.546875 -9.234375 7.546875 -8.984375 Z M 7.546875 -8.984375 "/></g></g></g><g fill="#ffffff" fill-opacity="1"><g transform="translate(147.921496, 258.222523)"><g><path d="M 13.265625 -17.9375 L 10.296875 -17.9375 C 9.984375 -17.9375 9.75 -17.71875 9.78125 -17.4375 C 9.8125 -16.484375 9.890625 -14.25 9.890625 -10.828125 C 9.890625 -10.546875 9.671875 -10.3125 9.390625 -10.3125 L 5.671875 -10.3125 C 5.390625 -10.3125 5.15625 -10.546875 5.15625 -10.828125 C 5.1875 -14.25 5.234375 -16.484375 5.265625 -17.4375 C 5.28125 -17.71875 5.0625 -17.9375 4.78125 -17.9375 L 1.765625 -17.9375 C 1.484375 -17.9375 1.265625 -17.71875 1.28125 -17.4375 C 1.3125 -16.328125 1.390625 -13.453125 1.390625 -8.984375 C 1.390625 -4.515625 1.3125 -1.625 1.28125 -0.515625 C 1.265625 -0.234375 1.484375 0.03125 1.765625 0.03125 L 4.78125 0.03125 C 5.0625 0.03125 5.28125 -0.234375 5.265625 -0.515625 C 5.234375 -1.46875 5.1875 -3.703125 5.15625 -7.109375 C 5.15625 -7.390625 5.390625 -7.625 5.671875 -7.625 L 9.390625 -7.625 C 9.671875 -7.625 9.890625 -7.390625 9.890625 -7.109375 C 9.890625 -3.703125 9.8125 -1.46875 9.78125 -0.515625 C 9.75 -0.234375 9.984375 0.03125 10.296875 0.03125 L 13.265625 0.03125 C 13.5625 0.03125 13.78125 -0.234375 13.78125 -0.515625 C 13.734375 -1.625 13.65625 -4.515625 13.65625 -8.984375 C 13.65625 -13.453125 13.734375 -16.328125 13.78125 -17.4375 C 13.78125 -17.71875 13.5625 -17.9375 13.265625 -17.9375 Z M 13.265625 -17.9375 "/></g></g></g><g fill="#ffffff" fill-opacity="1"><g transform="translate(163.011983, 258.222523)"><g><path d="M 13.8125 -15.734375 L 13.8125 -17.453125 C 13.8125 -17.734375 13.609375 -17.9375 13.328125 -17.9375 L 1.765625 -17.9375 C 1.484375 -17.9375 1.28125 -17.734375 1.28125 -17.453125 L 1.28125 -15.734375 C 1.28125 -15.453125 1.484375 -15.25 1.765625 -15.25 L 5.109375 -15.25 C 5.390625 -15.25 5.625 -15.015625 5.625 -14.734375 C 5.640625 -13.296875 5.671875 -11.375 5.671875 -8.984375 C 5.671875 -4.515625 5.59375 -1.625 5.546875 -0.515625 C 5.546875 -0.234375 5.78125 0 6.0625 0 L 9.03125 0 C 9.3125 0 9.546875 -0.234375 9.546875 -0.515625 C 9.5 -1.625 9.421875 -4.515625 9.421875 -8.984375 C 9.421875 -11.375 9.453125 -13.296875 9.46875 -14.734375 C 9.46875 -15.015625 9.703125 -15.25 9.984375 -15.25 L 13.328125 -15.25 C 13.609375 -15.25 13.8125 -15.453125 13.8125 -15.734375 Z M 13.8125 -15.734375 "/></g></g></g><g fill="#ffffff" fill-opacity="1"><g transform="translate(178.128128, 258.222523)"><g/></g></g><g fill="#ffffff" fill-opacity="1"><g transform="translate(185.776031, 258.222523)"><g><path d="M 12.90625 -17.9375 L 10.09375 -17.9375 C 9.859375 -17.9375 9.671875 -17.8125 9.59375 -17.609375 C 9.390625 -17 8.9375 -15.5625 8.109375 -13.421875 C 7.859375 -12.8125 7.65625 -12.25 7.4375 -11.75 C 7.390625 -11.609375 7.1875 -11.609375 7.140625 -11.75 C 6.9375 -12.25 6.703125 -12.8125 6.46875 -13.421875 C 5.640625 -15.5625 5.15625 -17 4.984375 -17.609375 C 4.90625 -17.8125 4.71875 -17.9375 4.5 -17.9375 L 1.640625 -17.9375 C 1.28125 -17.9375 1.03125 -17.5625 1.203125 -17.21875 C 1.5625 -16.484375 2.1875 -15.203125 2.984375 -13.421875 C 3.875 -11.453125 4.421875 -10.109375 4.671875 -9.421875 C 4.78125 -9.140625 4.78125 -8.8125 4.671875 -8.515625 C 4.421875 -7.828125 3.875 -6.5 2.984375 -4.515625 C 2.1875 -2.75 1.5625 -1.46875 1.203125 -0.71875 C 1.03125 -0.390625 1.28125 0.03125 1.640625 0.03125 L 4.5 0.03125 C 4.71875 0.03125 4.90625 -0.125 4.984375 -0.328125 C 5.15625 -0.953125 5.640625 -2.390625 6.46875 -4.515625 C 6.703125 -5.140625 6.9375 -5.703125 7.140625 -6.1875 C 7.1875 -6.34375 7.390625 -6.34375 7.4375 -6.1875 C 7.65625 -5.703125 7.859375 -5.140625 8.109375 -4.515625 C 8.9375 -2.390625 9.390625 -0.953125 9.59375 -0.328125 C 9.671875 -0.125 9.859375 0.03125 10.09375 0.03125 L 12.90625 0.03125 C 13.296875 0.03125 13.5625 -0.390625 13.375 -0.71875 C 13.015625 -1.46875 12.375 -2.75 11.578125 -4.515625 C 10.703125 -6.5 10.171875 -7.828125 9.90625 -8.515625 C 9.78125 -8.8125 9.78125 -9.140625 9.90625 -9.421875 C 10.171875 -10.109375 10.703125 -11.453125 11.578125 -13.421875 C 12.375 -15.203125 13.015625 -16.484375 13.375 -17.21875 C 13.5625 -17.5625 13.296875 -17.9375 12.90625 -17.9375 Z M 12.90625 -17.9375 "/></g></g></g><g fill="#ffffff" fill-opacity="1"><g transform="translate(200.378898, 258.222523)"><g><path d="M 7.515625 -17.9375 L 5.28125 -17.9375 L 5.28125 -17.96875 L 1.765625 -17.96875 C 1.484375 -17.96875 1.265625 -17.71875 1.28125 -17.4375 C 1.3125 -16.328125 1.390625 -13.453125 1.390625 -8.984375 C 1.390625 -4.515625 1.3125 -1.625 1.28125 -0.515625 C 1.265625 -0.234375 1.484375 0 1.765625 0 L 4.78125 0 C 5.0625 0 5.28125 -0.234375 5.265625 -0.515625 C 5.234375 -1.390625 5.1875 -3.390625 5.15625 -6.390625 C 5.15625 -6.671875 5.390625 -6.90625 5.671875 -6.90625 L 7.515625 -6.90625 C 12.25 -6.90625 13.78125 -8.828125 13.78125 -12.328125 C 13.78125 -15.8125 12.25 -17.9375 7.515625 -17.9375 Z M 7.578125 -9.625 L 5.671875 -9.625 C 5.390625 -9.625 5.15625 -9.859375 5.15625 -10.140625 C 5.15625 -11.984375 5.1875 -13.53125 5.21875 -14.734375 C 5.21875 -15.015625 5.4375 -15.25 5.703125 -15.25 L 7.578125 -15.25 C 9.703125 -15.25 9.734375 -13.484375 9.734375 -12.328125 C 9.734375 -11.171875 9.703125 -9.625 7.578125 -9.625 Z M 7.578125 -9.625 "/></g></g></g><g fill="#ffffff" fill-opacity="1"><g transform="translate(215.469385, 258.222523)"><g><path d="M 13.171875 0 C 13.484375 0 13.734375 -0.25 13.6875 -0.5625 C 13.609375 -1.265625 13.484375 -2.625 13.484375 -4.4375 C 13.484375 -6.359375 12.5 -7.5 11.1875 -8.140625 C 11.03125 -8.21875 11.03125 -8.421875 11.1875 -8.5 C 12.609375 -9.234375 13.609375 -10.546875 13.609375 -12.546875 C 13.609375 -16.96875 10.734375 -17.9375 7.375 -17.9375 L 5.28125 -17.9375 L 5.28125 -17.96875 L 1.765625 -17.96875 C 1.484375 -17.96875 1.265625 -17.71875 1.28125 -17.4375 C 1.3125 -16.328125 1.390625 -13.453125 1.390625 -8.984375 C 1.390625 -4.515625 1.3125 -1.625 1.28125 -0.515625 C 1.265625 -0.234375 1.484375 0 1.765625 0 L 4.78125 0 C 5.0625 0 5.28125 -0.234375 5.265625 -0.515625 C 5.234375 -1.390625 5.1875 -3.390625 5.15625 -6.390625 C 5.15625 -6.671875 5.390625 -6.90625 5.671875 -6.90625 L 7.265625 -6.90625 C 8.953125 -6.90625 9.421875 -5.59375 9.421875 -4.46875 L 9.421875 -0.484375 C 9.421875 -0.203125 9.65625 0 9.9375 0 Z M 7.421875 -15.25 C 8.21875 -15.25 9.578125 -14.640625 9.578125 -12.546875 C 9.578125 -11.390625 9.109375 -9.625 7.421875 -9.625 L 5.671875 -9.625 C 5.390625 -9.625 5.15625 -9.859375 5.15625 -10.140625 C 5.15625 -11.984375 5.1875 -13.53125 5.21875 -14.734375 C 5.21875 -15.015625 5.4375 -15.25 5.71875 -15.25 Z M 7.421875 -15.25 "/></g></g></g><g fill="#ffffff" fill-opacity="1"><g transform="translate(230.457219, 258.222523)"><g><path d="M 12.9375 -15.734375 L 12.9375 -17.453125 C 12.9375 -17.734375 12.703125 -17.9375 12.421875 -17.9375 L 1.765625 -17.9375 C 1.484375 -17.9375 1.265625 -17.71875 1.28125 -17.4375 C 1.3125 -16.328125 1.390625 -13.453125 1.390625 -8.984375 C 1.390625 -4.515625 1.3125 -1.625 1.28125 -0.515625 C 1.265625 -0.234375 1.484375 0.03125 1.765625 0.03125 L 12.421875 0.03125 C 12.703125 0.03125 12.9375 -0.203125 12.9375 -0.484375 L 12.9375 -2.203125 C 12.9375 -2.484375 12.703125 -2.703125 12.421875 -2.703125 L 5.703125 -2.703125 C 5.4375 -2.703125 5.21875 -2.921875 5.21875 -3.203125 C 5.1875 -4.265625 5.15625 -5.546875 5.15625 -7.109375 C 5.15625 -7.390625 5.390625 -7.625 5.671875 -7.625 L 11.0625 -7.625 C 11.34375 -7.625 11.578125 -7.828125 11.578125 -8.109375 L 11.578125 -9.828125 C 11.578125 -10.109375 11.34375 -10.3125 11.0625 -10.3125 L 5.671875 -10.3125 C 5.390625 -10.3125 5.15625 -10.546875 5.15625 -10.828125 C 5.15625 -12.40625 5.1875 -13.6875 5.21875 -14.734375 C 5.21875 -15.015625 5.4375 -15.25 5.703125 -15.25 L 12.421875 -15.25 C 12.703125 -15.25 12.9375 -15.453125 12.9375 -15.734375 Z M 12.9375 -15.734375 "/></g></g></g><g fill="#ffffff" fill-opacity="1"><g transform="translate(244.700787, 258.222523)"><g><path d="M 5.3125 -13.015625 C 5.3125 -14.296875 5.546875 -15.5 7.578125 -15.5 C 9.3125 -15.5 9.65625 -13.9375 9.734375 -13.0625 C 9.75 -12.78125 9.953125 -12.578125 10.21875 -12.578125 L 13.25 -12.578125 C 13.5625 -12.578125 13.78125 -12.84375 13.765625 -13.140625 C 13.578125 -15.765625 11.9375 -18.234375 7.515625 -18.234375 C 2.90625 -18.234375 1.28125 -16.28125 1.28125 -13.015625 C 1.28125 -6.65625 9.90625 -8.21875 9.90625 -4.921875 C 9.90625 -3.640625 9.703125 -2.4375 7.65625 -2.4375 C 5.90625 -2.4375 5.359375 -3.984375 5.3125 -4.875 C 5.28125 -5.15625 5.078125 -5.359375 4.796875 -5.359375 L 1.765625 -5.359375 C 1.484375 -5.359375 1.265625 -5.109375 1.28125 -4.796875 C 1.46875 -2.1875 3.3125 0.28125 7.703125 0.28125 C 12.34375 0.28125 13.96875 -1.671875 13.96875 -4.921875 C 13.96875 -11.375 5.3125 -9.8125 5.3125 -13.015625 Z M 5.3125 -13.015625 "/></g></g></g><g fill="#ffffff" fill-opacity="1"><g transform="translate(259.970924, 258.222523)"><g><path d="M 5.3125 -13.015625 C 5.3125 -14.296875 5.546875 -15.5 7.578125 -15.5 C 9.3125 -15.5 9.65625 -13.9375 9.734375 -13.0625 C 9.75 -12.78125 9.953125 -12.578125 10.21875 -12.578125 L 13.25 -12.578125 C 13.5625 -12.578125 13.78125 -12.84375 13.765625 -13.140625 C 13.578125 -15.765625 11.9375 -18.234375 7.515625 -18.234375 C 2.90625 -18.234375 1.28125 -16.28125 1.28125 -13.015625 C 1.28125 -6.65625 9.90625 -8.21875 9.90625 -4.921875 C 9.90625 -3.640625 9.703125 -2.4375 7.65625 -2.4375 C 5.90625 -2.4375 5.359375 -3.984375 5.3125 -4.875 C 5.28125 -5.15625 5.078125 -5.359375 4.796875 -5.359375 L 1.765625 -5.359375 C 1.484375 -5.359375 1.265625 -5.109375 1.28125 -4.796875 C 1.46875 -2.1875 3.3125 0.28125 7.703125 0.28125 C 12.34375 0.28125 13.96875 -1.671875 13.96875 -4.921875 C 13.96875 -11.375 5.3125 -9.8125 5.3125 -13.015625 Z M 5.3125 -13.015625 "/></g></g></g></svg>