<svg xmlns="http://www.w3.org/2000/svg" xmlns:xlink="http://www.w3.org/1999/xlink" width="500" zoomAndPan="magnify" viewBox="0 0 375 374.999991" height="500" preserveAspectRatio="xMidYMid meet" version="1.0"><defs><g/><clipPath id="d07876b9f3"><path d="M 27.332031 119.757812 L 171.554688 119.757812 L 171.554688 210.792969 L 27.332031 210.792969 Z M 27.332031 119.757812 " clip-rule="nonzero"/></clipPath><clipPath id="54b3d8d305"><path d="M 25 112.09375 L 158 112.09375 L 158 174 L 25 174 Z M 25 112.09375 " clip-rule="nonzero"/></clipPath><clipPath id="16bb22a6c5"><path d="M 22.371094 159.457031 L 166.105469 159.457031 L 166.105469 218.214844 L 22.371094 218.214844 Z M 22.371094 159.457031 " clip-rule="nonzero"/></clipPath></defs><g clip-path="url(#d07876b9f3)"><path fill="#f7f4f3" d="M 27.488281 173.035156 L 41.386719 206.976562 C 42.660156 210.089844 46.214844 211.578125 49.328125 210.304688 L 167.773438 161.796875 C 170.882812 160.523438 172.371094 156.96875 171.097656 153.859375 L 157.199219 119.917969 L 27.488281 173.035156 " fill-opacity="1" fill-rule="nonzero"/></g><g clip-path="url(#54b3d8d305)"><path fill="#dd1c1a" d="M 155.878906 116.695312 C 154.605469 113.582031 151.050781 112.09375 147.941406 113.367188 L 29.496094 161.875 C 26.382812 163.148438 24.894531 166.703125 26.167969 169.8125 L 27.488281 173.035156 L 157.199219 119.917969 L 155.878906 116.695312 " fill-opacity="1" fill-rule="nonzero"/></g><path fill="#131515" d="M 42.128906 175.644531 L 34.65625 178.703125 L 33.90625 176.871094 L 41.378906 173.8125 L 42.128906 175.644531 " fill-opacity="1" fill-rule="nonzero"/><path fill="#131515" d="M 44.253906 180.828125 L 36.78125 183.886719 L 35.570312 180.929688 L 43.042969 177.871094 L 44.253906 180.828125 " fill-opacity="1" fill-rule="nonzero"/><path fill="#131515" d="M 45.453125 183.761719 L 37.980469 186.820312 L 37.605469 185.90625 L 45.078125 182.84375 L 45.453125 183.761719 " fill-opacity="1" fill-rule="nonzero"/><path fill="#131515" d="M 47.117188 187.820312 L 39.644531 190.878906 L 38.246094 187.46875 L 45.71875 184.40625 L 47.117188 187.820312 " fill-opacity="1" fill-rule="nonzero"/><path fill="#131515" d="M 48.777344 191.878906 L 41.304688 194.9375 L 40.554688 193.105469 L 48.027344 190.046875 L 48.777344 191.878906 " fill-opacity="1" fill-rule="nonzero"/><path fill="#131515" d="M 50.441406 195.9375 L 42.96875 199 L 41.496094 195.398438 L 48.964844 192.339844 L 50.441406 195.9375 " fill-opacity="1" fill-rule="nonzero"/><path fill="#131515" d="M 52.101562 199.996094 L 44.628906 203.058594 L 43.878906 201.226562 L 51.351562 198.164062 L 52.101562 199.996094 " fill-opacity="1" fill-rule="nonzero"/><path fill="#477eff" d="M 68.359375 179.148438 L 54.328125 184.894531 L 48.578125 170.863281 L 62.613281 165.113281 L 68.359375 179.148438 " fill-opacity="1" fill-rule="nonzero"/><path fill="#477eff" d="M 87.546875 171.292969 L 73.515625 177.039062 L 67.769531 163.003906 L 81.800781 157.257812 L 87.546875 171.292969 " fill-opacity="1" fill-rule="nonzero"/><path fill="#477eff" d="M 106.734375 163.433594 L 92.703125 169.179688 L 86.957031 155.144531 L 100.988281 149.398438 L 106.734375 163.433594 " fill-opacity="1" fill-rule="nonzero"/><path fill="#131515" d="M 149.304688 159.003906 C 149.820312 158.835938 150.160156 158.347656 150.148438 157.804688 L 149.738281 142.265625 C 149.710938 141.183594 150.132812 140.140625 150.90625 139.386719 L 154.597656 135.765625 C 155.371094 135.007812 155.796875 133.96875 155.773438 132.886719 C 155.765625 132.511719 155.46875 132.207031 155.09375 132.191406 C 154.015625 132.148438 152.964844 132.550781 152.191406 133.308594 L 148.496094 136.925781 C 147.726562 137.683594 146.671875 138.082031 145.59375 138.03125 L 130.066406 137.304688 C 129.523438 137.277344 129.03125 137.609375 128.847656 138.121094 C 128.617188 138.761719 128.953125 139.46875 129.59375 139.695312 L 140.585938 143.609375 C 141.03125 143.769531 141.15625 144.335938 140.816406 144.667969 L 135.074219 150.292969 C 134.554688 150.800781 133.820312 151.023438 133.109375 150.886719 L 131.191406 150.519531 L 130.8125 151.84375 L 133.402344 152.703125 C 134.082031 152.925781 134.609375 153.46875 134.820312 154.152344 L 135.628906 156.761719 L 136.957031 156.40625 L 136.695312 154.863281 C 136.535156 153.910156 136.847656 152.9375 137.539062 152.257812 L 143.007812 146.902344 C 143.34375 146.574219 143.910156 146.710938 144.058594 147.15625 L 147.746094 158.226562 C 147.960938 158.871094 148.660156 159.222656 149.304688 159.003906 " fill-opacity="1" fill-rule="nonzero"/><path fill="#131515" d="M 113.855469 132.265625 C 113.5 132.410156 113.09375 132.242188 112.945312 131.882812 L 112.039062 129.671875 C 111.894531 129.3125 112.066406 128.90625 112.421875 128.761719 C 112.777344 128.613281 113.1875 128.785156 113.332031 129.140625 L 114.238281 131.355469 C 114.382812 131.710938 114.214844 132.121094 113.855469 132.265625 Z M 116.804688 139.460938 C 116.445312 139.605469 116.039062 139.4375 115.894531 139.078125 L 114.988281 136.867188 C 114.839844 136.507812 115.011719 136.101562 115.367188 135.957031 C 115.726562 135.808594 116.132812 135.980469 116.277344 136.335938 L 117.183594 138.550781 C 117.332031 138.90625 117.160156 139.316406 116.804688 139.460938 Z M 119.75 146.65625 C 119.394531 146.800781 118.988281 146.632812 118.839844 146.273438 L 117.933594 144.0625 C 117.789062 143.703125 117.957031 143.296875 118.316406 143.152344 C 118.671875 143.003906 119.078125 143.175781 119.226562 143.53125 L 120.132812 145.746094 C 120.277344 146.101562 120.105469 146.511719 119.75 146.65625 Z M 122.699219 153.851562 C 122.339844 153.996094 121.933594 153.828125 121.785156 153.46875 L 120.878906 151.257812 C 120.734375 150.898438 120.90625 150.492188 121.261719 150.347656 C 121.617188 150.199219 122.027344 150.371094 122.171875 150.726562 L 123.078125 152.941406 C 123.226562 153.296875 123.054688 153.707031 122.699219 153.851562 Z M 125.644531 161.046875 C 125.289062 161.195312 124.878906 161.023438 124.734375 160.667969 L 123.828125 158.453125 C 123.679688 158.097656 123.851562 157.6875 124.207031 157.542969 C 124.566406 157.394531 124.972656 157.566406 125.117188 157.921875 L 126.027344 160.136719 C 126.171875 160.496094 126 160.902344 125.644531 161.046875 Z M 128.589844 168.242188 C 128.234375 168.390625 127.824219 168.21875 127.679688 167.863281 L 126.773438 165.648438 C 126.628906 165.292969 126.796875 164.882812 127.15625 164.738281 C 127.511719 164.589844 127.917969 164.761719 128.066406 165.117188 L 128.972656 167.332031 C 129.117188 167.691406 128.945312 168.097656 128.589844 168.242188 Z M 131.539062 175.4375 C 131.179688 175.585938 130.773438 175.414062 130.625 175.058594 L 129.71875 172.84375 C 129.574219 172.488281 129.746094 172.078125 130.101562 171.933594 C 130.457031 171.789062 130.867188 171.957031 131.011719 172.316406 L 131.917969 174.527344 C 132.066406 174.886719 131.894531 175.292969 131.539062 175.4375 " fill-opacity="1" fill-rule="nonzero"/><path fill="#477eff" d="M 100.789062 178.566406 L 58.777344 195.769531 L 55.6875 188.222656 L 97.699219 171.019531 L 100.789062 178.566406 " fill-opacity="1" fill-rule="nonzero"/><g clip-path="url(#16bb22a6c5)"><path fill="#f7f4f3" d="M 22.492188 176.445312 L 26.898438 212.859375 C 27.300781 216.195312 30.332031 218.574219 33.671875 218.167969 L 160.734375 202.796875 C 164.074219 202.390625 166.449219 199.359375 166.046875 196.019531 L 161.640625 159.609375 L 22.492188 176.445312 " fill-opacity="1" fill-rule="nonzero"/></g><path fill="#dd1c1a" d="M 161.222656 156.152344 C 160.820312 152.816406 157.789062 150.4375 154.449219 150.839844 L 27.386719 166.214844 C 24.046875 166.617188 21.667969 169.652344 22.074219 172.988281 L 22.492188 176.445312 L 161.640625 159.609375 L 161.222656 156.152344 " fill-opacity="1" fill-rule="nonzero"/><path fill="#131515" d="M 35.917969 182.839844 L 27.902344 183.8125 L 27.664062 181.84375 L 35.679688 180.875 L 35.917969 182.839844 " fill-opacity="1" fill-rule="nonzero"/><path fill="#131515" d="M 36.589844 188.402344 L 28.574219 189.375 L 28.191406 186.199219 L 36.207031 185.230469 L 36.589844 188.402344 " fill-opacity="1" fill-rule="nonzero"/><path fill="#131515" d="M 36.96875 191.550781 L 28.953125 192.519531 L 28.835938 191.535156 L 36.851562 190.566406 L 36.96875 191.550781 " fill-opacity="1" fill-rule="nonzero"/><path fill="#131515" d="M 37.496094 195.902344 L 29.480469 196.875 L 29.039062 193.210938 L 37.054688 192.242188 L 37.496094 195.902344 " fill-opacity="1" fill-rule="nonzero"/><path fill="#131515" d="M 38.023438 200.257812 L 30.007812 201.226562 L 29.769531 199.261719 L 37.785156 198.292969 L 38.023438 200.257812 " fill-opacity="1" fill-rule="nonzero"/><path fill="#131515" d="M 38.550781 204.613281 L 30.535156 205.582031 L 30.066406 201.722656 L 38.082031 200.753906 L 38.550781 204.613281 " fill-opacity="1" fill-rule="nonzero"/><path fill="#131515" d="M 39.078125 208.96875 L 31.0625 209.9375 L 30.824219 207.972656 L 38.839844 207 L 39.078125 208.96875 " fill-opacity="1" fill-rule="nonzero"/><path fill="#477eff" d="M 60.28125 193.175781 L 45.226562 194.996094 L 43.402344 179.941406 L 58.457031 178.117188 L 60.28125 193.175781 " fill-opacity="1" fill-rule="nonzero"/><path fill="#477eff" d="M 80.863281 190.683594 L 65.808594 192.503906 L 63.988281 177.449219 L 79.042969 175.628906 L 80.863281 190.683594 " fill-opacity="1" fill-rule="nonzero"/><path fill="#477eff" d="M 101.449219 188.195312 L 86.394531 190.015625 L 84.574219 174.960938 L 99.628906 173.136719 L 101.449219 188.195312 " fill-opacity="1" fill-rule="nonzero"/><path fill="#131515" d="M 143.667969 195.207031 C 144.210938 195.179688 144.667969 194.800781 144.800781 194.273438 L 148.527344 179.179688 C 148.785156 178.132812 149.46875 177.238281 150.410156 176.714844 L 154.933594 174.203125 C 155.878906 173.679688 156.566406 172.785156 156.832031 171.738281 C 156.921875 171.375 156.714844 171.003906 156.359375 170.886719 C 155.328125 170.558594 154.210938 170.667969 153.261719 171.195312 L 148.742188 173.703125 C 147.796875 174.230469 146.675781 174.335938 145.652344 174 L 130.871094 169.183594 C 130.355469 169.015625 129.789062 169.203125 129.480469 169.648438 C 129.089844 170.203125 129.222656 170.972656 129.78125 171.363281 L 139.34375 178.050781 C 139.730469 178.320312 139.699219 178.902344 139.285156 179.132812 L 132.257812 183.035156 C 131.621094 183.386719 130.855469 183.40625 130.203125 183.085938 L 128.453125 182.222656 L 127.734375 183.398438 L 130.003906 184.914062 C 130.601562 185.3125 130.96875 185.972656 130.992188 186.6875 L 131.074219 189.417969 L 132.453125 189.425781 L 132.609375 187.871094 C 132.703125 186.90625 133.265625 186.054688 134.113281 185.582031 L 140.804688 181.867188 C 141.21875 181.640625 141.726562 181.921875 141.75 182.394531 L 142.371094 194.042969 C 142.410156 194.722656 142.988281 195.246094 143.667969 195.207031 " fill-opacity="1" fill-rule="nonzero"/><path fill="#131515" d="M 116.578125 160.027344 C 116.195312 160.074219 115.847656 159.800781 115.800781 159.417969 L 115.511719 157.042969 C 115.464844 156.660156 115.738281 156.3125 116.121094 156.265625 C 116.503906 156.21875 116.851562 156.492188 116.898438 156.875 L 117.1875 159.25 C 117.230469 159.632812 116.960938 159.980469 116.578125 160.027344 Z M 117.511719 167.746094 C 117.128906 167.792969 116.78125 167.519531 116.734375 167.136719 L 116.445312 164.761719 C 116.402344 164.378906 116.671875 164.03125 117.054688 163.984375 C 117.4375 163.941406 117.785156 164.210938 117.832031 164.59375 L 118.121094 166.96875 C 118.167969 167.351562 117.894531 167.699219 117.511719 167.746094 Z M 118.445312 175.464844 C 118.0625 175.511719 117.714844 175.238281 117.667969 174.855469 L 117.378906 172.480469 C 117.335938 172.097656 117.605469 171.75 117.988281 171.707031 C 118.371094 171.660156 118.71875 171.933594 118.765625 172.316406 L 119.054688 174.6875 C 119.101562 175.074219 118.828125 175.421875 118.445312 175.464844 Z M 119.378906 183.1875 C 118.996094 183.230469 118.648438 182.960938 118.601562 182.578125 L 118.316406 180.199219 C 118.269531 179.820312 118.542969 179.472656 118.921875 179.425781 C 119.304688 179.378906 119.652344 179.652344 119.699219 180.035156 L 119.988281 182.410156 C 120.035156 182.792969 119.761719 183.140625 119.378906 183.1875 Z M 120.3125 190.90625 C 119.929688 190.953125 119.582031 190.679688 119.535156 190.296875 L 119.25 187.921875 C 119.203125 187.539062 119.476562 187.191406 119.859375 187.144531 C 120.242188 187.097656 120.585938 187.371094 120.632812 187.753906 L 120.921875 190.128906 C 120.96875 190.511719 120.695312 190.859375 120.3125 190.90625 Z M 121.246094 198.625 C 120.863281 198.671875 120.515625 198.398438 120.46875 198.015625 L 120.183594 195.640625 C 120.136719 195.257812 120.410156 194.910156 120.792969 194.863281 C 121.175781 194.816406 121.523438 195.089844 121.570312 195.472656 L 121.855469 197.847656 C 121.902344 198.230469 121.628906 198.578125 121.246094 198.625 Z M 122.179688 206.34375 C 121.796875 206.390625 121.449219 206.117188 121.402344 205.734375 L 121.117188 203.359375 C 121.070312 202.976562 121.34375 202.628906 121.726562 202.582031 C 122.109375 202.535156 122.457031 202.808594 122.503906 203.191406 L 122.789062 205.566406 C 122.835938 205.949219 122.5625 206.296875 122.179688 206.34375 " fill-opacity="1" fill-rule="nonzero"/><path fill="#477eff" d="M 91.703125 201.207031 L 46.636719 206.660156 L 45.65625 198.566406 L 90.722656 193.113281 L 91.703125 201.207031 " fill-opacity="1" fill-rule="nonzero"/><g fill="#ffffff" fill-opacity="1"><g transform="translate(187.499992, 179.566599)"><g><path d="M 5.28125 -17.9375 L 1.765625 -17.9375 C 1.484375 -17.9375 1.265625 -17.71875 1.28125 -17.4375 C 1.3125 -16.328125 1.390625 -13.453125 1.390625 -8.984375 C 1.390625 -4.515625 1.3125 -1.625 1.28125 -0.515625 C 1.265625 -0.234375 1.484375 0.03125 1.765625 0.03125 L 4.78125 0.03125 C 5.0625 0.03125 5.28125 -0.234375 5.265625 -0.515625 C 5.234375 -1.46875 5.1875 -3.703125 5.15625 -7.109375 C 5.15625 -7.390625 5.390625 -7.625 5.671875 -7.625 L 11.0625 -7.625 C 11.34375 -7.625 11.578125 -7.828125 11.578125 -8.109375 L 11.578125 -9.828125 C 11.578125 -10.109375 11.34375 -10.3125 11.0625 -10.3125 L 5.671875 -10.3125 C 5.390625 -10.3125 5.15625 -10.546875 5.15625 -10.828125 C 5.15625 -12.40625 5.1875 -13.6875 5.21875 -14.734375 C 5.21875 -15.015625 5.4375 -15.25 5.703125 -15.25 L 12.421875 -15.25 C 12.703125 -15.25 12.9375 -15.453125 12.9375 -15.734375 L 12.9375 -17.453125 C 12.9375 -17.734375 12.703125 -17.9375 12.421875 -17.9375 Z M 5.28125 -17.9375 "/></g></g></g><g fill="#ffffff" fill-opacity="1"><g transform="translate(201.74356, 179.566599)"><g><path d="M 5.078125 -3.203125 C 5.140625 -9.0625 5.265625 -15.578125 5.3125 -17.4375 C 5.3125 -17.71875 5.078125 -17.9375 4.796875 -17.9375 L 1.765625 -17.9375 C 1.484375 -17.9375 1.28125 -17.734375 1.28125 -17.453125 L 1.28125 -0.484375 C 1.28125 -0.203125 1.484375 0 1.765625 0 L 10.609375 0 C 10.890625 0 11.09375 -0.203125 11.09375 -0.484375 L 11.09375 -2.203125 C 11.09375 -2.484375 10.890625 -2.703125 10.609375 -2.703125 L 5.59375 -2.703125 C 5.3125 -2.703125 5.078125 -2.921875 5.078125 -3.203125 Z M 5.078125 -3.203125 "/></g></g></g><g fill="#ffffff" fill-opacity="1"><g transform="translate(214.010996, 179.566599)"><g><path d="M 5.265625 -0.515625 C 5.234375 -1.625 5.15625 -4.515625 5.15625 -8.984375 C 5.15625 -13.453125 5.234375 -16.328125 5.265625 -17.4375 C 5.28125 -17.71875 5.0625 -17.96875 4.78125 -17.96875 L 1.765625 -17.96875 C 1.484375 -17.96875 1.265625 -17.71875 1.28125 -17.4375 C 1.3125 -16.328125 1.390625 -13.453125 1.390625 -8.984375 C 1.390625 -4.515625 1.3125 -1.625 1.28125 -0.515625 C 1.265625 -0.234375 1.484375 0 1.765625 0 L 4.78125 0 C 5.0625 0 5.28125 -0.234375 5.265625 -0.515625 Z M 5.265625 -0.515625 "/></g></g></g><g fill="#ffffff" fill-opacity="1"><g transform="translate(220.581003, 179.566599)"><g><path d="M 7.546875 -8.984375 L 7.546875 -7.265625 C 7.546875 -6.984375 7.78125 -6.75 8.0625 -6.75 L 9.390625 -6.75 C 9.671875 -6.75 9.90625 -6.546875 9.90625 -6.265625 C 9.90625 -5.984375 9.9375 -5.703125 9.9375 -5.390625 C 9.9375 -4.109375 9.53125 -2.484375 7.46875 -2.484375 C 5.34375 -2.484375 5.3125 -4.78125 5.3125 -5.390625 L 5.3125 -12.546875 C 5.3125 -13.84375 5.546875 -15.453125 7.578125 -15.453125 C 9.3125 -15.453125 9.65625 -13.921875 9.734375 -13.015625 C 9.75 -12.765625 9.953125 -12.546875 10.21875 -12.546875 L 13.25 -12.546875 C 13.5625 -12.546875 13.78125 -12.8125 13.765625 -13.09375 C 13.578125 -15.71875 11.9375 -18.171875 7.515625 -18.171875 C 2.90625 -18.171875 1.28125 -15.8125 1.28125 -12.546875 C 1.28125 -11.453125 1.390625 -10.734375 1.390625 -8.953125 C 1.390625 -7.21875 1.28125 -6.5 1.28125 -5.390625 C 1.28125 -2.5625 2.828125 0.234375 7.515625 0.234375 C 12.171875 0.234375 13.78125 -2.125 13.78125 -5.390625 L 13.78125 -8.984375 C 13.78125 -9.234375 13.5625 -9.46875 13.265625 -9.46875 L 8.0625 -9.46875 C 7.78125 -9.46875 7.546875 -9.234375 7.546875 -8.984375 Z M 7.546875 -8.984375 "/></g></g></g><g fill="#ffffff" fill-opacity="1"><g transform="translate(235.67149, 179.566599)"><g><path d="M 13.265625 -17.9375 L 10.296875 -17.9375 C 9.984375 -17.9375 9.75 -17.71875 9.78125 -17.4375 C 9.8125 -16.484375 9.890625 -14.25 9.890625 -10.828125 C 9.890625 -10.546875 9.671875 -10.3125 9.390625 -10.3125 L 5.671875 -10.3125 C 5.390625 -10.3125 5.15625 -10.546875 5.15625 -10.828125 C 5.1875 -14.25 5.234375 -16.484375 5.265625 -17.4375 C 5.28125 -17.71875 5.0625 -17.9375 4.78125 -17.9375 L 1.765625 -17.9375 C 1.484375 -17.9375 1.265625 -17.71875 1.28125 -17.4375 C 1.3125 -16.328125 1.390625 -13.453125 1.390625 -8.984375 C 1.390625 -4.515625 1.3125 -1.625 1.28125 -0.515625 C 1.265625 -0.234375 1.484375 0.03125 1.765625 0.03125 L 4.78125 0.03125 C 5.0625 0.03125 5.28125 -0.234375 5.265625 -0.515625 C 5.234375 -1.46875 5.1875 -3.703125 5.15625 -7.109375 C 5.15625 -7.390625 5.390625 -7.625 5.671875 -7.625 L 9.390625 -7.625 C 9.671875 -7.625 9.890625 -7.390625 9.890625 -7.109375 C 9.890625 -3.703125 9.8125 -1.46875 9.78125 -0.515625 C 9.75 -0.234375 9.984375 0.03125 10.296875 0.03125 L 13.265625 0.03125 C 13.5625 0.03125 13.78125 -0.234375 13.78125 -0.515625 C 13.734375 -1.625 13.65625 -4.515625 13.65625 -8.984375 C 13.65625 -13.453125 13.734375 -16.328125 13.78125 -17.4375 C 13.78125 -17.71875 13.5625 -17.9375 13.265625 -17.9375 Z M 13.265625 -17.9375 "/></g></g></g><g fill="#ffffff" fill-opacity="1"><g transform="translate(250.761978, 179.566599)"><g><path d="M 13.8125 -15.734375 L 13.8125 -17.453125 C 13.8125 -17.734375 13.609375 -17.9375 13.328125 -17.9375 L 1.765625 -17.9375 C 1.484375 -17.9375 1.28125 -17.734375 1.28125 -17.453125 L 1.28125 -15.734375 C 1.28125 -15.453125 1.484375 -15.25 1.765625 -15.25 L 5.109375 -15.25 C 5.390625 -15.25 5.625 -15.015625 5.625 -14.734375 C 5.640625 -13.296875 5.671875 -11.375 5.671875 -8.984375 C 5.671875 -4.515625 5.59375 -1.625 5.546875 -0.515625 C 5.546875 -0.234375 5.78125 0 6.0625 0 L 9.03125 0 C 9.3125 0 9.546875 -0.234375 9.546875 -0.515625 C 9.5 -1.625 9.421875 -4.515625 9.421875 -8.984375 C 9.421875 -11.375 9.453125 -13.296875 9.46875 -14.734375 C 9.46875 -15.015625 9.703125 -15.25 9.984375 -15.25 L 13.328125 -15.25 C 13.609375 -15.25 13.8125 -15.453125 13.8125 -15.734375 Z M 13.8125 -15.734375 "/></g></g></g><g fill="#ffffff" fill-opacity="1"><g transform="translate(265.878122, 179.566599)"><g/></g></g><g fill="#ffffff" fill-opacity="1"><g transform="translate(273.526025, 179.566599)"><g><path d="M 12.90625 -17.9375 L 10.09375 -17.9375 C 9.859375 -17.9375 9.671875 -17.8125 9.59375 -17.609375 C 9.390625 -17 8.9375 -15.5625 8.109375 -13.421875 C 7.859375 -12.8125 7.65625 -12.25 7.4375 -11.75 C 7.390625 -11.609375 7.1875 -11.609375 7.140625 -11.75 C 6.9375 -12.25 6.703125 -12.8125 6.46875 -13.421875 C 5.640625 -15.5625 5.15625 -17 4.984375 -17.609375 C 4.90625 -17.8125 4.71875 -17.9375 4.5 -17.9375 L 1.640625 -17.9375 C 1.28125 -17.9375 1.03125 -17.5625 1.203125 -17.21875 C 1.5625 -16.484375 2.1875 -15.203125 2.984375 -13.421875 C 3.875 -11.453125 4.421875 -10.109375 4.671875 -9.421875 C 4.78125 -9.140625 4.78125 -8.8125 4.671875 -8.515625 C 4.421875 -7.828125 3.875 -6.5 2.984375 -4.515625 C 2.1875 -2.75 1.5625 -1.46875 1.203125 -0.71875 C 1.03125 -0.390625 1.28125 0.03125 1.640625 0.03125 L 4.5 0.03125 C 4.71875 0.03125 4.90625 -0.125 4.984375 -0.328125 C 5.15625 -0.953125 5.640625 -2.390625 6.46875 -4.515625 C 6.703125 -5.140625 6.9375 -5.703125 7.140625 -6.1875 C 7.1875 -6.34375 7.390625 -6.34375 7.4375 -6.1875 C 7.65625 -5.703125 7.859375 -5.140625 8.109375 -4.515625 C 8.9375 -2.390625 9.390625 -0.953125 9.59375 -0.328125 C 9.671875 -0.125 9.859375 0.03125 10.09375 0.03125 L 12.90625 0.03125 C 13.296875 0.03125 13.5625 -0.390625 13.375 -0.71875 C 13.015625 -1.46875 12.375 -2.75 11.578125 -4.515625 C 10.703125 -6.5 10.171875 -7.828125 9.90625 -8.515625 C 9.78125 -8.8125 9.78125 -9.140625 9.90625 -9.421875 C 10.171875 -10.109375 10.703125 -11.453125 11.578125 -13.421875 C 12.375 -15.203125 13.015625 -16.484375 13.375 -17.21875 C 13.5625 -17.5625 13.296875 -17.9375 12.90625 -17.9375 Z M 12.90625 -17.9375 "/></g></g></g><g fill="#ffffff" fill-opacity="1"><g transform="translate(288.128892, 179.566599)"><g><path d="M 7.515625 -17.9375 L 5.28125 -17.9375 L 5.28125 -17.96875 L 1.765625 -17.96875 C 1.484375 -17.96875 1.265625 -17.71875 1.28125 -17.4375 C 1.3125 -16.328125 1.390625 -13.453125 1.390625 -8.984375 C 1.390625 -4.515625 1.3125 -1.625 1.28125 -0.515625 C 1.265625 -0.234375 1.484375 0 1.765625 0 L 4.78125 0 C 5.0625 0 5.28125 -0.234375 5.265625 -0.515625 C 5.234375 -1.390625 5.1875 -3.390625 5.15625 -6.390625 C 5.15625 -6.671875 5.390625 -6.90625 5.671875 -6.90625 L 7.515625 -6.90625 C 12.25 -6.90625 13.78125 -8.828125 13.78125 -12.328125 C 13.78125 -15.8125 12.25 -17.9375 7.515625 -17.9375 Z M 7.578125 -9.625 L 5.671875 -9.625 C 5.390625 -9.625 5.15625 -9.859375 5.15625 -10.140625 C 5.15625 -11.984375 5.1875 -13.53125 5.21875 -14.734375 C 5.21875 -15.015625 5.4375 -15.25 5.703125 -15.25 L 7.578125 -15.25 C 9.703125 -15.25 9.734375 -13.484375 9.734375 -12.328125 C 9.734375 -11.171875 9.703125 -9.625 7.578125 -9.625 Z M 7.578125 -9.625 "/></g></g></g><g fill="#ffffff" fill-opacity="1"><g transform="translate(303.219379, 179.566599)"><g><path d="M 13.171875 0 C 13.484375 0 13.734375 -0.25 13.6875 -0.5625 C 13.609375 -1.265625 13.484375 -2.625 13.484375 -4.4375 C 13.484375 -6.359375 12.5 -7.5 11.1875 -8.140625 C 11.03125 -8.21875 11.03125 -8.421875 11.1875 -8.5 C 12.609375 -9.234375 13.609375 -10.546875 13.609375 -12.546875 C 13.609375 -16.96875 10.734375 -17.9375 7.375 -17.9375 L 5.28125 -17.9375 L 5.28125 -17.96875 L 1.765625 -17.96875 C 1.484375 -17.96875 1.265625 -17.71875 1.28125 -17.4375 C 1.3125 -16.328125 1.390625 -13.453125 1.390625 -8.984375 C 1.390625 -4.515625 1.3125 -1.625 1.28125 -0.515625 C 1.265625 -0.234375 1.484375 0 1.765625 0 L 4.78125 0 C 5.0625 0 5.28125 -0.234375 5.265625 -0.515625 C 5.234375 -1.390625 5.1875 -3.390625 5.15625 -6.390625 C 5.15625 -6.671875 5.390625 -6.90625 5.671875 -6.90625 L 7.265625 -6.90625 C 8.953125 -6.90625 9.421875 -5.59375 9.421875 -4.46875 L 9.421875 -0.484375 C 9.421875 -0.203125 9.65625 0 9.9375 0 Z M 7.421875 -15.25 C 8.21875 -15.25 9.578125 -14.640625 9.578125 -12.546875 C 9.578125 -11.390625 9.109375 -9.625 7.421875 -9.625 L 5.671875 -9.625 C 5.390625 -9.625 5.15625 -9.859375 5.15625 -10.140625 C 5.15625 -11.984375 5.1875 -13.53125 5.21875 -14.734375 C 5.21875 -15.015625 5.4375 -15.25 5.71875 -15.25 Z M 7.421875 -15.25 "/></g></g></g><g fill="#ffffff" fill-opacity="1"><g transform="translate(318.207213, 179.566599)"><g><path d="M 12.9375 -15.734375 L 12.9375 -17.453125 C 12.9375 -17.734375 12.703125 -17.9375 12.421875 -17.9375 L 1.765625 -17.9375 C 1.484375 -17.9375 1.265625 -17.71875 1.28125 -17.4375 C 1.3125 -16.328125 1.390625 -13.453125 1.390625 -8.984375 C 1.390625 -4.515625 1.3125 -1.625 1.28125 -0.515625 C 1.265625 -0.234375 1.484375 0.03125 1.765625 0.03125 L 12.421875 0.03125 C 12.703125 0.03125 12.9375 -0.203125 12.9375 -0.484375 L 12.9375 -2.203125 C 12.9375 -2.484375 12.703125 -2.703125 12.421875 -2.703125 L 5.703125 -2.703125 C 5.4375 -2.703125 5.21875 -2.921875 5.21875 -3.203125 C 5.1875 -4.265625 5.15625 -5.546875 5.15625 -7.109375 C 5.15625 -7.390625 5.390625 -7.625 5.671875 -7.625 L 11.0625 -7.625 C 11.34375 -7.625 11.578125 -7.828125 11.578125 -8.109375 L 11.578125 -9.828125 C 11.578125 -10.109375 11.34375 -10.3125 11.0625 -10.3125 L 5.671875 -10.3125 C 5.390625 -10.3125 5.15625 -10.546875 5.15625 -10.828125 C 5.15625 -12.40625 5.1875 -13.6875 5.21875 -14.734375 C 5.21875 -15.015625 5.4375 -15.25 5.703125 -15.25 L 12.421875 -15.25 C 12.703125 -15.25 12.9375 -15.453125 12.9375 -15.734375 Z M 12.9375 -15.734375 "/></g></g></g><g fill="#ffffff" fill-opacity="1"><g transform="translate(332.450781, 179.566599)"><g><path d="M 5.3125 -13.015625 C 5.3125 -14.296875 5.546875 -15.5 7.578125 -15.5 C 9.3125 -15.5 9.65625 -13.9375 9.734375 -13.0625 C 9.75 -12.78125 9.953125 -12.578125 10.21875 -12.578125 L 13.25 -12.578125 C 13.5625 -12.578125 13.78125 -12.84375 13.765625 -13.140625 C 13.578125 -15.765625 11.9375 -18.234375 7.515625 -18.234375 C 2.90625 -18.234375 1.28125 -16.28125 1.28125 -13.015625 C 1.28125 -6.65625 9.90625 -8.21875 9.90625 -4.921875 C 9.90625 -3.640625 9.703125 -2.4375 7.65625 -2.4375 C 5.90625 -2.4375 5.359375 -3.984375 5.3125 -4.875 C 5.28125 -5.15625 5.078125 -5.359375 4.796875 -5.359375 L 1.765625 -5.359375 C 1.484375 -5.359375 1.265625 -5.109375 1.28125 -4.796875 C 1.46875 -2.1875 3.3125 0.28125 7.703125 0.28125 C 12.34375 0.28125 13.96875 -1.671875 13.96875 -4.921875 C 13.96875 -11.375 5.3125 -9.8125 5.3125 -13.015625 Z M 5.3125 -13.015625 "/></g></g></g><g fill="#ffffff" fill-opacity="1"><g transform="translate(347.720918, 179.566599)"><g><path d="M 5.3125 -13.015625 C 5.3125 -14.296875 5.546875 -15.5 7.578125 -15.5 C 9.3125 -15.5 9.65625 -13.9375 9.734375 -13.0625 C 9.75 -12.78125 9.953125 -12.578125 10.21875 -12.578125 L 13.25 -12.578125 C 13.5625 -12.578125 13.78125 -12.84375 13.765625 -13.140625 C 13.578125 -15.765625 11.9375 -18.234375 7.515625 -18.234375 C 2.90625 -18.234375 1.28125 -16.28125 1.28125 -13.015625 C 1.28125 -6.65625 9.90625 -8.21875 9.90625 -4.921875 C 9.90625 -3.640625 9.703125 -2.4375 7.65625 -2.4375 C 5.90625 -2.4375 5.359375 -3.984375 5.3125 -4.875 C 5.28125 -5.15625 5.078125 -5.359375 4.796875 -5.359375 L 1.765625 -5.359375 C 1.484375 -5.359375 1.265625 -5.109375 1.28125 -4.796875 C 1.46875 -2.1875 3.3125 0.28125 7.703125 0.28125 C 12.34375 0.28125 13.96875 -1.671875 13.96875 -4.921875 C 13.96875 -11.375 5.3125 -9.8125 5.3125 -13.015625 Z M 5.3125 -13.015625 "/></g></g></g></svg>